# xmcd
#
# Track frame offsets: 
#        150
#        20427
#        34020
#        49743
#        63739
#        80875
#        97359
#        117912
#        132155
#        146797
#        161063
#        180819
#        197747
#        213909
#        230968
#        247305
#        265349
#
# Disc length: 3787 seconds
#
# Revision: 2
# Processed by: cddbd v1.5.2PL0 Copyright (c) Steve Scherf et al.
# Submitted via: ExactAudioCopyFreeDBPlugin 1.0
#
DISCID=080ec911
DTITLE=Various Artist - Now Country 5
DYEAR=2011
DGENRE=Country
TTITLE0=Lady Antebellum - Hello World
TTITLE1=Johnny Reid - Let's Go Higher
TTITLE2=Blake Shelton - Honey Bee
TTITLE3=Colt Ford Feat. Gord Bramford - Chicken and Biscuits
TTITLE4=Terry Clark - Northern Girl
TTITLE5=Keith Urban - Put You in a Song
TTITLE6=Zac Brown Band - Colder Weather
TTITLE7=Dean Brody - Roll that Barrel Out
TTITLE8=Jerrod Niemann - Lover, Lover
TTITLE9=Dierks Bently - Am I the Only One
TTITLE10=Brad Paisley - Water
TTITLE11=Luke Bryan - Country Girl (Shake it for Me)
TTITLE12=Chad Brownlee - Day After You
TTITLE13=Eric Church - Homeboy
TTITLE14=Darius Rucker - This
TTITLE15=Aaron Pritchett - Drive
TTITLE16=George Canyon - Better Be Home Soon
EXTD=
EXTT0=
EXTT1=
EXTT2=
EXTT3=
EXTT4=
EXTT5=
EXTT6=
EXTT7=
EXTT8=
EXTT9=
EXTT10=
EXTT11=
EXTT12=
EXTT13=
EXTT14=
EXTT15=
EXTT16=
PLAYORDER=
